<?xml version="1.0" encoding="UTF-8" standalone="no"?>
<svg
   xmlns:dc="http://purl.org/dc/elements/1.1/"
   xmlns:cc="http://creativecommons.org/ns#"
   xmlns:rdf="http://www.w3.org/1999/02/22-rdf-syntax-ns#"
   xmlns:svg="http://www.w3.org/2000/svg"
   xmlns="http://www.w3.org/2000/svg"
   xmlns:sodipodi="http://sodipodi.sourceforge.net/DTD/sodipodi-0.dtd"
   xmlns:inkscape="http://www.inkscape.org/namespaces/inkscape"
   width="100"
   height="100"
   viewBox="0 0 100 100"
   version="1.1"
   id="svg883"
   sodipodi:docname="circle2.svg"
   inkscape:version="1.0.2 (e86c870879, 2021-01-15)">
  <defs
     id="defs877" />
  <sodipodi:namedview
     id="base"
     pagecolor="#000000"
     bordercolor="#666666"
     borderopacity="1.0"
     inkscape:pageopacity="0"
     inkscape:pageshadow="2"
     inkscape:zoom="3.959798"
     inkscape:cx="32.694228"
     inkscape:cy="28.01496"
     inkscape:document-units="px"
     inkscape:current-layer="layer1"
     inkscape:document-rotation="0"
     showgrid="false"
     inkscape:pagecheckerboard="true"
     units="px"
     inkscape:window-width="1920"
     inkscape:window-height="1017"
     inkscape:window-x="-8"
     inkscape:window-y="-8"
     inkscape:window-maximized="1" />
  <metadata
     id="metadata880">
    <rdf:RDF>
      <cc:Work
         rdf:about="">
        <dc:format>image/svg+xml</dc:format>
        <dc:type
           rdf:resource="http://purl.org/dc/dcmitype/StillImage" />
        <dc:title></dc:title>
      </cc:Work>
    </rdf:RDF>
  </metadata>
  <g
     inkscape:label="Layer 1"
     inkscape:groupmode="layer"
     id="layer1">
    <path
       id="path838"
       style="fill:none;fill-opacity:1;fill-rule:evenodd;stroke:#ffffff;stroke-opacity:1;stroke-width:1.5;stroke-miterlimit:4;stroke-dasharray:none"
       d="M 50.056641 2.6269531 A 47.5 47.5 0 0 0 11.070312 23.091797 L 14.214844 25.267578 A 43.5 43.5 0 0 1 23.019531 15.876953 L 25.810547 19.408203 A 39 39 0 0 1 50 11 A 39 39 0 0 1 89 50 A 39 39 0 0 1 88.216797 57.771484 L 92.724609 58.6875 A 43.599998 43.599998 0 0 0 93.5625 51.775391 L 97.591797 51.927734 A 47.5 47.5 0 0 0 84.572266 17.419922 L 81.730469 20.099609 A 43.599998 43.599998 0 0 0 72.833984 12.857422 A 43.599998 43.599998 0 0 0 61.269531 7.8828125 L 62.255859 4.2011719 A 47.5 47.5 0 0 0 50.056641 2.6269531 z " />
    <path
       id="path858"
       style="fill:none;fill-rule:evenodd;fill-opacity:1;stroke:#ffffff;stroke-opacity:1;stroke-width:1.5;stroke-miterlimit:4;stroke-dasharray:none"
       d="M 6.6601562 53.705078 L 2.1738281 54.087891 A 48 48 0 0 0 17.654297 85.464844 L 20.621094 82.212891 A 43.599998 43.599998 0 0 0 36.001953 91.291016 L 37.478516 86.933594 A 39 39 0 0 1 11.634766 57.005859 L 7.2089844 57.814453 A 43.5 43.5 0 0 1 6.6601562 53.705078 z " />
  </g>
</svg>
