<?xml version="1.0" encoding="UTF-8" standalone="no"?>
<svg
   xmlns:dc="http://purl.org/dc/elements/1.1/"
   xmlns:cc="http://creativecommons.org/ns#"
   xmlns:rdf="http://www.w3.org/1999/02/22-rdf-syntax-ns#"
   xmlns:svg="http://www.w3.org/2000/svg"
   xmlns="http://www.w3.org/2000/svg"
   xmlns:sodipodi="http://sodipodi.sourceforge.net/DTD/sodipodi-0.dtd"
   xmlns:inkscape="http://www.inkscape.org/namespaces/inkscape"
   width="100"
   height="100"
   viewBox="0 0 100 100"
   version="1.1"
   id="svg883"
   sodipodi:docname="circle3.svg"
   inkscape:version="1.0.2 (e86c870879, 2021-01-15)">
  <defs
     id="defs877" />
  <sodipodi:namedview
     id="base"
     pagecolor="#000000"
     bordercolor="#666666"
     borderopacity="1.0"
     inkscape:pageopacity="0"
     inkscape:pageshadow="2"
     inkscape:zoom="5.6568543"
     inkscape:cx="46.491166"
     inkscape:cy="47.873606"
     inkscape:document-units="px"
     inkscape:current-layer="layer1"
     inkscape:document-rotation="0"
     showgrid="false"
     inkscape:pagecheckerboard="true"
     units="px"
     inkscape:window-width="1920"
     inkscape:window-height="1017"
     inkscape:window-x="-8"
     inkscape:window-y="-8"
     inkscape:window-maximized="1" />
  <metadata
     id="metadata880">
    <rdf:RDF>
      <cc:Work
         rdf:about="">
        <dc:format>image/svg+xml</dc:format>
        <dc:type
           rdf:resource="http://purl.org/dc/dcmitype/StillImage" />
        <dc:title></dc:title>
      </cc:Work>
    </rdf:RDF>
  </metadata>
  <g
     inkscape:label="Layer 1"
     inkscape:groupmode="layer"
     id="layer1">
    <path
       id="path1853"
       style="fill:#ffffff;fill-rule:evenodd;fill-opacity:1"
       inkscape:transform-center-x="-25.003906"
       inkscape:transform-center-y="1.1015625"
       d="M 90 50 A 40 40 0 0 1 89.960938 51.767578 L 99.951172 52.208984 A 50 50 0 0 0 100 50 L 90 50 z M 89.845703 53.486328 A 40 40 0 0 1 89.654297 55.244141 L 99.568359 56.554688 A 50 50 0 0 0 99.810547 54.357422 L 89.845703 53.486328 z M 89.392578 56.947266 A 40 40 0 0 1 89.044922 58.679688 L 98.808594 60.849609 A 50 50 0 0 0 99.240234 58.683594 L 89.392578 56.947266 z M 88.636719 60.353516 A 40 40 0 0 1 88.142578 62.050781 L 97.677734 65.0625 A 50 50 0 0 0 98.296875 62.941406 L 88.636719 60.353516 z M 87.585938 63.681641 A 40 40 0 0 1 86.945312 65.328125 L 96.183594 69.160156 A 50 50 0 0 0 96.984375 67.101562 L 87.585938 63.681641 z M 86.25 66.90625 A 40 40 0 0 1 85.46875 68.490234 L 94.337891 73.113281 A 50 50 0 0 0 95.316406 71.132812 L 86.25 66.90625 z M 84.640625 70 A 40 40 0 0 1 83.722656 71.511719 L 92.15625 76.890625 A 50 50 0 0 0 93.302734 75.001953 L 84.640625 70 z M 82.765625 72.945312 A 40 40 0 0 1 81.71875 74.369141 L 89.652344 80.462891 A 50 50 0 0 0 90.958984 78.681641 L 82.765625 72.945312 z M 80.638672 75.712891 A 40 40 0 0 1 79.474609 77.041016 L 86.845703 83.802734 A 50 50 0 0 0 88.302734 82.142578 L 80.638672 75.712891 z M 78.28125 78.285156 A 40 40 0 0 1 77.005859 79.507812 L 83.759766 86.886719 A 50 50 0 0 0 85.355469 85.359375 L 78.28125 78.285156 z " />
  </g>
</svg>
